<mxfile host="Electron" agent="Mozilla/5.0 (Windows NT 10.0; Win64; x64) AppleWebKit/537.36 (KHTML, like Gecko) draw.io/24.7.5 Chrome/126.0.6478.183 Electron/31.3.0 Safari/537.36" version="24.7.5">
  <diagram name="Page-1" id="MSDp2PU8bGs8e4bnTbi5">
    <mxGraphModel dx="1050" dy="629" grid="1" gridSize="10" guides="1" tooltips="1" connect="1" arrows="1" fold="1" page="1" pageScale="1" pageWidth="850" pageHeight="1100" math="0" shadow="0">
      <root>
        <mxCell id="0" />
        <mxCell id="1" parent="0" />
        <mxCell id="9Mf4X-yOeQ4NxgGHDEPR-6" style="edgeStyle=orthogonalEdgeStyle;rounded=0;orthogonalLoop=1;jettySize=auto;html=1;flowAnimation=1;" edge="1" parent="1" source="9Mf4X-yOeQ4NxgGHDEPR-1">
          <mxGeometry relative="1" as="geometry">
            <mxPoint x="260" y="200" as="targetPoint" />
          </mxGeometry>
        </mxCell>
        <mxCell id="9Mf4X-yOeQ4NxgGHDEPR-1" value="" style="shape=image;verticalLabelPosition=bottom;labelBackgroundColor=default;verticalAlign=top;aspect=fixed;imageAspect=0;image=data:image/svg+xml,PHN2ZyB4bWxucz0iaHR0cDovL3d3dy53My5vcmcvMjAwMC9zdmciIHZpZXdCb3g9IjAgMCAzMiAzMiIgaGVpZ2h0PSI4MDBweCIgd2lkdGg9IjgwMHB4Ij48dGl0bGU+ZmlsZV90eXBlX2V4Y2VsMjwvdGl0bGU+PHBhdGggc3R5bGU9ImZpbGw6IzIwNzQ0YTtmaWxsLXJ1bGU6ZXZlbm9kZCIgZD0iTTI4Ljc4MSw0LjQwNUgxOC42NTFWMi4wMThMMiw0LjU4OFYyNy4xMTVsMTYuNjUxLDIuODY4VjI2LjQ0NUgyOC43ODFBMS4xNjIsMS4xNjIsMCwwLDAsMzAsMjUuMzQ5VjUuNUExLjE2MiwxLjE2MiwwLDAsMCwyOC43ODEsNC40MDVabS4xNiwyMS4xMjZIMTguNjE3TDE4LjYsMjMuNjQyaDIuNDg3di0yLjJIMTguNTgxbC0uMDEyLTEuM2gyLjUxOHYtMi4ySDE4LjU1bC0uMDEyLTEuM2gyLjU0OXYtMi4ySDE4LjUzdi0xLjNoMi41NTd2LTIuMkgxOC41M3YtMS4zaDIuNTU3di0yLjJIMTguNTN2LTJIMjguOTQxWiIvPjxyZWN0IHN0eWxlPSJmaWxsOiMyMDc0NGEiIGhlaWdodD0iMi4yIiB3aWR0aD0iNC4zMjMiIHk9IjcuNDM5IiB4PSIyMi40ODciLz48cmVjdCBzdHlsZT0iZmlsbDojMjA3NDRhIiBoZWlnaHQ9IjIuMiIgd2lkdGg9IjQuMzIzIiB5PSIxMC45NCIgeD0iMjIuNDg3Ii8+PHJlY3Qgc3R5bGU9ImZpbGw6IzIwNzQ0YSIgaGVpZ2h0PSIyLjIiIHdpZHRoPSI0LjMyMyIgeT0iMTQuNDQxIiB4PSIyMi40ODciLz48cmVjdCBzdHlsZT0iZmlsbDojMjA3NDRhIiBoZWlnaHQ9IjIuMiIgd2lkdGg9IjQuMzIzIiB5PSIxNy45NDIiIHg9IjIyLjQ4NyIvPjxyZWN0IHN0eWxlPSJmaWxsOiMyMDc0NGEiIGhlaWdodD0iMi4yIiB3aWR0aD0iNC4zMjMiIHk9IjIxLjQ0MyIgeD0iMjIuNDg3Ii8+PHBvbHlnb24gc3R5bGU9ImZpbGw6I2ZmZmZmZjtmaWxsLXJ1bGU6ZXZlbm9kZCIgcG9pbnRzPSI2LjM0NyAxMC42NzMgOC40OTMgMTAuNTUgOS44NDIgMTQuMjU5IDExLjQzNiAxMC4zOTcgMTMuNTgyIDEwLjI3NCAxMC45NzYgMTUuNTQgMTMuNTgyIDIwLjgxOSAxMS4zMTMgMjAuNjY2IDkuNzgxIDE2LjY0MiA4LjI0OCAyMC41MTMgNi4xNjMgMjAuMzI5IDguNTg1IDE1LjY2NiA2LjM0NyAxMC42NzMiLz48L3N2Zz4=;" vertex="1" parent="1">
          <mxGeometry x="90" y="170" width="60" height="60" as="geometry" />
        </mxCell>
        <mxCell id="9Mf4X-yOeQ4NxgGHDEPR-15" style="edgeStyle=orthogonalEdgeStyle;rounded=0;orthogonalLoop=1;jettySize=auto;html=1;entryX=0;entryY=0.5;entryDx=0;entryDy=0;flowAnimation=1;" edge="1" parent="1" source="9Mf4X-yOeQ4NxgGHDEPR-2" target="9Mf4X-yOeQ4NxgGHDEPR-13">
          <mxGeometry relative="1" as="geometry">
            <Array as="points">
              <mxPoint x="605" y="200" />
              <mxPoint x="605" y="200" />
            </Array>
          </mxGeometry>
        </mxCell>
        <mxCell id="9Mf4X-yOeQ4NxgGHDEPR-2" value="" style="shape=image;verticalLabelPosition=bottom;labelBackgroundColor=default;verticalAlign=top;imageAspect=0;image=data:image/svg+xml,PHN2ZyB4bWxucz0iaHR0cDovL3d3dy53My5vcmcvMjAwMC9zdmciIGNsYXNzPSJoLWZ1bGwgdy1mdWxsIiBzdHlsZT0iY29sb3I6Y3VycmVudENvbG9yIiB2aWV3Qm94PSIwIDAgNTEyIDUxMiIgaGVpZ2h0PSI1MTIiIHdpZHRoPSI1MTIiPjxyZWN0IHBhaW50LW9yZGVyPSJzdHJva2UiIHN0cm9rZS1vcGFjaXR5PSIxMDAlIiBzdHJva2Utd2lkdGg9IjAiIHN0cm9rZT0idHJhbnNwYXJlbnQiIGZpbGw9InRyYW5zcGFyZW50IiByeD0iMzAiIHk9IjAiIHg9IjAiIGhlaWdodD0iNTEyIiB3aWR0aD0iNTEyIi8+PHN2ZyB4bWxucz0iaHR0cDovL3d3dy53My5vcmcvMjAwMC9zdmciIHN0eWxlPSJkaXNwbGF5OmlubGluZS1ibG9jazt2ZXJ0aWNhbC1hbGlnbjptaWRkbGUiIHJvbGU9ImltZyIgeT0iMTI4IiB4PSIxMjgiIGZpbGw9ImN1cnJlbnRDb2xvciIgdmlld0JveD0iMCAwIDEyOCAxMjgiIGhlaWdodD0iMjU2cHgiIHdpZHRoPSIyNTZweCI+PGcgZmlsbD0iY3VycmVudENvbG9yIj48cGF0aCBkPSJNMi4wMDEgOTAuNDU4aDQuMTA4Vjc0LjIzNWw2LjM2IDE0LjE0M2MuNzUgMS43MTIgMS43NzcgMi4zMTcgMy43OTIgMi4zMTdzMy4wMDMtLjYwNSAzLjc1My0yLjMxN2w2LjM2LTE0LjE0M3YxNi4yMjNoNC4xMDhWNzQuMjYyYzAtMS41OC0uNjMyLTIuMzQ1LTEuOTM2LTIuNzM5Yy0zLjEyMS0uOTc0LTUuMjE1LS4xMzEtNi4xNjMgMS45NzZsLTYuMjQxIDEzLjk1OGwtNi4wNDMtMTMuOTU5Yy0uOTA5LTIuMTA2LTMuMDQyLTIuOTQ5LTYuMTYzLTEuOTc2QzIuNjMyIDcxLjkxNyAyIDcyLjY4MSAyIDc0LjI2MXYxNi4xOTd6bTMxLjg5OC0xMy4yMDZoNC4xMDd2OC45MzhjLS4wMzguNDg1LjE1NiAxLjYyNSAyLjQwNiAxLjY2MWMxLjE0OC4wMTggOC44NjIgMCA4LjkzNCAwVjc3LjIwOGg0LjExN2MuMDE5IDAtLjAwNCAxNC41MTQtLjAwNCAxNC41NzRjLjAyMiAzLjU4LTQuNDQxIDQuMzU3LTYuNDk5IDQuNDE3SDMzLjk4OHYtMi43NjRjLjAyMiAwIDEyLjk2My4wMDMgMTIuOTk1LS4wMDFjMi42NDUtLjI3OSAyLjMzMi0xLjU5MyAyLjMzMS0yLjAzNXYtMS4wNzhoLTguNzMxYy00LjA2Mi0uMDM3LTYuNjUtMS44MS02LjY4My0zLjg1Yy0uMDAyLS4xODcuMDg5LTkuMTI5LS4wMDEtOS4yMTl6IiBmaWxsPSIjMDA2MThBIi8+PHBhdGggZD0iTTU2LjYzIDkwLjQ1OGgxMS44MTJjMS4zODMgMCAyLjcyNy0uMjg5IDMuNzkzLS43ODljMS43NzctLjgxNiAyLjY0Ni0xLjkyMiAyLjY0Ni0zLjM3MnYtMy4wMDJjMC0xLjE4NS0uOTg3LTIuMjkyLTIuOTIzLTMuMDI4Yy0xLjAyNy0uMzk2LTIuMjkyLS42MDUtMy41MTctLjYwNWgtNC45NzhjLTEuNjU5IDAtMi40NDktLjUtMi42NDYtMS42MDZjLS4wMzktLjEzMi0uMDM5LS4yMzctLjAzOS0uMzY5di0xLjg3YzAtLjEwNSAwLS4yMTEuMDM5LS4zNDJjLjE5Ny0uODQzLjYzMi0xLjA4IDIuMDk0LTEuMjEybC4zOTUtLjAyNmgxMS43MzN2LTIuNzM4SDYzLjUwNGMtMS42NTkgMC0yLjUyOC4xMDUtMy4zMTguMzQyYy0yLjQ0OS43NjQtMy41MTcgMS45NzUtMy41MTcgNC4wODJ2Mi4zOTZjMCAxLjg0NCAyLjA5NSAzLjQyNCA1LjYxIDMuNzkzYy4zOTYuMDI1Ljc5LjA1MyAxLjE4NS4wNTNoNC4yNjdjLjE1OCAwIC4zMTYgMCAuNDM1LjAyNWMxLjMwNC4xMDUgMS44NTYuMzQzIDIuMjUyLjgxNmEuOTguOTggMCAwIDEgLjMxNS43Mzd2Mi4zOTdjMCAuMjg5LS4xOTcuNjU4LS41OTIuOTc0Yy0uMzU1LjMxNi0uOTQ4LjUyNy0xLjczOC41OGwtLjQzNS4wMjZINTYuNjN2Mi43Mzh6bTQzLjg4MS00Ljc2NmMwIDIuODE3IDIuMDk0IDQuMzk3IDYuMzIgNC43MTRjLjM5NS4wMjYuNzkuMDUyIDEuMTg1LjA1MmgxMC43MDZWODcuNzJoLTEwLjc4NGMtMi40MSAwLTMuMzE4LS42MDYtMy4zMTgtMi4wNTVWNzEuNDk3aC00LjEwOHYxNC4xOTV6bS0yMy4wMDguMTQydi05Ljc2NWMwLTIuNDggMS43NDItMy45ODUgNS4xODYtNC40NmE3LjggNy44IDAgMCAxIDEuMTA4LS4wNzloNy43OTljLjM5NiAwIC43NTIuMDI2IDEuMTQ3LjA3OWMzLjQ0NC40NzUgNS4xODcgMS45NzkgNS4xODcgNC40NnY5Ljc2NWMwIDIuMDE0LS43NCAzLjA5LTIuNDQ1IDMuNzkybDQuMDQ4IDMuNjUzaC00Ljc3MWwtMy4yNzQtMi45NTZsLTMuMjk2LjIwOWgtNC4zOTVhOS4wNzUgOS4wNzUgMCAwIDEtMi40MTQtLjM0M2MtMi42MTMtLjcxMi0zLjg4LTIuMDg1LTMuODgtNC4zNTV6bTQuNDM0LS4yMzdjMCAuMTMyLjAzOS4yNjUuMDc5LjQyM2MuMjM3IDEuMTM1IDEuMzA3IDEuNzY4IDIuOTI5IDEuNzY4aDMuNzMybC0zLjQyOC0zLjA5NWg0Ljc3MWwyLjk4OSAyLjdjLjU1Mi0uMjk1LjkxNC0uNzQzIDEuMDQxLTEuMzJjLjAzOS0uMTMyLjAzOS0uMjY0LjAzOS0uMzk2di05LjM2OGMwLS4xMDUgMC0uMjM4LS4wMzktLjM3Yy0uMjM4LTEuMDU2LTEuMzA3LTEuNjYyLTIuODktMS42NjJoLTYuMjE2Yy0xLjgyIDAtMy4wMDguNzkyLTMuMDA4IDIuMDMydjkuMjg4eiIgZmlsbD0iI0U0OEUwMCIvPjxwYXRoIGQ9Ik0xMjIuMzM2IDY2Ljk1MmMtMi41MjUtLjA2OS00LjQ1NC4xNjYtNi4xMDQuODYxYy0uNDY5LjE5OC0xLjIxNi4yMDMtMS4yOTIuNzljLjI1Ny4yNzEuMjk3LjY3NC41MDIgMS4wMDZjLjM5NC42MzcgMS4wNTkgMS40OTEgMS42NTIgMS45MzhjLjY0Ny40ODkgMS4zMTUgMS4wMTMgMi4wMTEgMS40MzdjMS4yMzUuNzU0IDIuNjE1IDEuMTg0IDMuODA2IDEuOTM4Yy43MDEuNDQ2IDEuMzk3IDEuMDA2IDIuMDgyIDEuNTA5Yy4zMzkuMjQ3LjU2NS42MzQgMS4wMDYuNzg5di0uMDcxYy0uMjMxLS4yOTQtLjI5MS0uNjk4LS41MDMtMS4wMDZsLS45MzQtLjkzNGMtLjkxMy0xLjIxMi0yLjA3MS0yLjI3NS0zLjMwNC0zLjE1OWMtLjk4Mi0uNzA1LTMuMTgtMS42NTgtMy41OS0yLjgwMWwtLjA3Mi0uMDcxYy42OTYtLjA3OSAxLjUxMi0uMzMxIDIuMTU0LS41MDNjMS4wOC0uMjkgMi4wNDUtLjIxNSAzLjE2LS41MDNsMS41MDgtLjQzMnYtLjI4NmMtLjU2My0uNTc4LS45NjYtMS4zNDQtMS41OC0xLjg2N2MtMS42MDctMS4zNjktMy4zNjMtMi43MzctNS4xNy0zLjg3OWMtMS4wMDItLjYzMi0yLjI0MS0xLjA0My0zLjMwNC0xLjU3OWMtLjM1Ni0uMTgxLS45ODQtLjI3NC0xLjIyMS0uNTc1Yy0uNTU5LS43MTEtLjg2Mi0xLjYxMi0xLjI5My0yLjQ0MWE5My4wNjggOTMuMDY4IDAgMCAxLTIuNTg1LTUuNDU4Yy0uNTQ0LTEuMjQ1LS45LTIuNDczLTEuNTc5LTMuNTljLTMuMjYxLTUuMzYxLTYuNzcxLTguNTk3LTEyLjIwOC0xMS43NzdjLTEuMTU3LS42NzctMi41NS0uOTQzLTQuMDIxLTEuMjkybC0yLjM3LS4xNDRjLS40ODEtLjIwMS0uOTgzLS43OTEtMS40MzYtMS4wNzdjLTEuODAyLTEuMTM4LTYuNDIyLTMuNjEzLTcuNzU2LS4zNThjLS44NDIgMi4wNTQgMS4yNiA0LjA1OCAyLjAxMSA1LjA5OWMuNTI3LjczIDEuMjAzIDEuNTQ4IDEuNTggMi4zNjljLjI0OC41NC4yOSAxLjA4MS41MDMgMS42NTJjLjUyMSAxLjQwNi45NzYgMi45MzcgMS42NTEgNC4yMzZjLjM0MS42NTguNzE4IDEuMzUxIDEuMTQ5IDEuOTM5Yy4yNjQuMzYuNzE4LjUyLjc4OSAxLjA3N2MtLjQ0My42Mi0uNDY5IDEuNTg0LS43MTggMi4zNjljLTEuMTIyIDMuNTM5LS42OTkgNy45MzguOTM0IDEwLjU1N2MuNTAxLjgwNSAxLjY4MSAyLjUyOSAzLjMwMyAxLjg2N2MxLjQxOS0uNTc4IDEuMTAzLTIuMzY5IDEuNTA5LTMuOTVjLjA5Mi0uMzU3LjAzNS0uNjIxLjIxNS0uODYxdi4wNzJsMS4yOTMgMi41ODVjLjk1NyAxLjU0MSAyLjY1NCAzLjE1IDQuMDkzIDQuMjM3Yy43NDYuNTYzIDEuMzM0IDEuNTM4IDIuMjk4IDEuODY3di0uMDczaC0uMDcxYy0uMTg4LS4yOTEtLjQ3OS0uNDExLS43MTktLjY0NmMtLjU2Mi0uNTUxLTEuMTg3LTEuMjM1LTEuNjUxLTEuODY3Yy0xLjMwOS0xLjc3Ni0yLjQ2NS0zLjcyMS0zLjUxOS01Ljc0NWMtLjUwMy0uOTY2LS45NC0yLjAzMi0xLjM2NC0zLjAxNmMtLjE2NC0uMzc5LS4xNjItLjk1My0uNTAyLTEuMTQ4Yy0uNDY2LjcyLTEuMTQ5IDEuMzAzLTEuNTA5IDIuMTU0Yy0uNTc0IDEuMzYtLjY0OCAzLjAxOS0uODYxIDQuNzM5bC0uMTQ0LjA3MWMtMS4wMDEtLjI0MS0xLjM1Mi0xLjI3MS0xLjcyNC0yLjE1NGMtLjk0LTIuMjMzLTEuMTE1LTUuODMtLjI4Ny04LjQwMWMuMjE0LS42NjYgMS4xODEtMi43NjEuNzg5LTMuMzc2Yy0uMTg3LS42MTMtLjgwNC0uOTY3LTEuMTQ4LTEuNDM3YTExLjIyMiAxMS4yMjIgMCAwIDEtMS4xNDktMi4wMTFjLS43Ny0xLjc0MS0xLjEyOS0zLjY5Ni0xLjkzOC01LjQ1N2MtLjM4OC0uODQyLTEuMDQyLTEuNjkzLTEuNTgtMi40NDFjLS41OTUtLjgzLTEuMjYyLTEuNDQtMS43MjQtMi40NDJjLS4xNjQtLjM1Ni0uMzg3LS45MjctLjE0NC0xLjI5M2MuMDc3LS4yNDcuMTg4LS4zNS40MzItLjQzMWMuNDE2LS4zMjEgMS41NzYuMTA3IDIuMDEuMjg3YzEuMTUyLjQ3OSAyLjExMy45MzQgMy4wODkgMS41OGMuNDY4LjMxMS45NDEuOTExIDEuNTA4IDEuMDc3aC42NDZjMS4wMTEuMjMyIDIuMTQ0LjA3MSAzLjA4OC4zNThjMS42Ny41MDggMy4xNjYgMS4yOTcgNC41MjQgMi4xNTVjNC4xMzkgMi42MTQgNy41MjIgNi4zMzQgOS44MzggMTAuNzcyYy4zNzIuNzE1LjUzNCAxLjM5Ni44NjEgMi4xNTRjLjY2MiAxLjUyOCAxLjQ5NiAzLjEwMSAyLjE1NCA0LjU5NmMuNjU3IDEuNDkxIDEuMjk4IDIuOTk2IDIuMjI3IDQuMjM3Yy40ODguNjUyIDIuMzc0IDEuMDAyIDMuMjMxIDEuMzY0Yy42MDEuMjU0IDEuNTg1LjUxOSAyLjE1NC44NjFjMS4wODcuNjU2IDIuMTQxIDEuNDM3IDMuMTYgMi4xNTVjLjUwOS4zNjIgMi4wNzYgMS4xNDkgMi4xNTQgMS43OTh6TTkwLjIzNyAzOS41OTNhNS4xMjQgNS4xMjQgMCAwIDAtMS4yOTMuMTQ0di4wNzFoLjA3MmMuMjUxLjUxNy42OTQuODQ5IDEuMDA1IDEuMjkzbC43MTkgMS41MDhsLjA3MS0uMDcxYy40NDUtLjMxMy42NDgtLjgxNC42NDYtMS41OGMtLjE3OS0uMTg4LS4yMDUtLjQyMy0uMzU5LS42NDZjLS4yMDQtLjMtLjYwMi0uNDY4LS44NjEtLjcxOXoiIGZpbGw9IiMwMDYxOEEiLz48L2c+PC9zdmc+PC9zdmc+;aspect=fixed;clipPath=inset(36.67% 24% 38% 24.33%);" vertex="1" parent="1">
          <mxGeometry x="430" y="172.92" width="110" height="53.93548387096775" as="geometry" />
        </mxCell>
        <mxCell id="9Mf4X-yOeQ4NxgGHDEPR-7" style="edgeStyle=orthogonalEdgeStyle;rounded=0;orthogonalLoop=1;jettySize=auto;html=1;entryX=0;entryY=0.5;entryDx=0;entryDy=0;flowAnimation=1;" edge="1" parent="1" source="9Mf4X-yOeQ4NxgGHDEPR-3" target="9Mf4X-yOeQ4NxgGHDEPR-2">
          <mxGeometry relative="1" as="geometry" />
        </mxCell>
        <mxCell id="9Mf4X-yOeQ4NxgGHDEPR-3" value="" style="shape=image;verticalLabelPosition=bottom;labelBackgroundColor=default;verticalAlign=top;aspect=fixed;imageAspect=0;image=data:image/svg+xml,PHN2ZyB4bWxuczp4bGluaz0iaHR0cDovL3d3dy53My5vcmcvMTk5OS94bGluayIgeG1sbnM9Imh0dHA6Ly93d3cudzMub3JnLzIwMDAvc3ZnIiB3aWR0aD0iMjU2IiB2aWV3Qm94PSIwIDAgMjU2IDI1NSIgcHJlc2VydmVBc3BlY3RSYXRpbz0ieE1pZFlNaWQiIGhlaWdodD0iMjU1Ij48bGluZWFyR3JhZGllbnQgeTI9Ijc4LjIwMDg1NCUiIHkxPSIxMi4wMzkzOTMlIiB4Mj0iNzkuNjM4ODMzJSIgeDE9IjEyLjk1OTM1OSUiIGlkPSJhIj48c3RvcCBzdG9wLWNvbG9yPSIjMzg3ZWI4IiBvZmZzZXQ9IjAiLz48c3RvcCBzdG9wLWNvbG9yPSIjMzY2OTk0IiBvZmZzZXQ9IjEiLz48L2xpbmVhckdyYWRpZW50PjxsaW5lYXJHcmFkaWVudCB5Mj0iODguNDI5MDM3JSIgeTE9IjIwLjU3OTE4MSUiIHgyPSI5MC43NDE1MzMlIiB4MT0iMTkuMTI3NTI1JSIgaWQ9ImIiPjxzdG9wIHN0b3AtY29sb3I9IiNmZmUwNTIiIG9mZnNldD0iMCIvPjxzdG9wIHN0b3AtY29sb3I9IiNmZmMzMzEiIG9mZnNldD0iMSIvPjwvbGluZWFyR3JhZGllbnQ+PHBhdGggZmlsbD0idXJsKCNhKSIgZD0ibTEyNi45MTU4NjYuMDcyMjc1NTVjLTY0LjgzMjI4MjkuMDAwMDA0NjItNjAuNzgzNzM3MiAyOC4xMTUxODkyNS02MC43ODM3MzcyIDI4LjExNTE4OTI1bC4wNzIyNzU1IDI5LjEyNzA0NjdoNjEuODY3ODcxN3Y4Ljc0NTM0MTdoLTg2LjQ0MTU1ODlzLTQxLjQ4NjE2Ni00LjcwNDkwOTQtNDEuNDg2MTY2IDYwLjcxMTQ2MThjLS4wMDAwMDQ2MyA2NS40MTYzNTggMzYuMjEwMDUwOCA2My4wOTY1NTYgMzYuMjEwMDUwOCA2My4wOTY1NTZoMjEuNjEwMzg5NnYtMzAuMzU1NzMxcy0xLjE2NDg1NTItMzYuMjEwMDUxIDM1LjYzMTg0NjQtMzYuMjEwMDUxaDYxLjM2MTk0MjFzMzQuNDc1NDM4LjU1NzI5NyAzNC40NzU0MzgtMzMuMzE5MDI4NnYtNTYuMDEzNTUxNmMwLS4wMDAwMDQ3IDUuMjM0MzIzLTMzLjg5NzIzMzI1LTYyLjUxODM1Mi0zMy44OTcyMzMyNXptLTM0LjExNDA1OTEgMTkuNTg2Njc0MTVjNi4xNTUzOTk5LS4wMDAwMDQ1IDExLjEzMDQzNTEgNC45NzUwMzQ5IDExLjEzMDQzNTEgMTEuMTMwNDM0OC4wMDAwMDQgNi4xNTUzOTk5LTQuOTc1MDM1MiAxMS4xMzA0MzQ4LTExLjEzMDQzNTEgMTEuMTMwNDM0OC02LjE1NTM5OTkuMDAwMDA0Ni0xMS4xMzA0MzQ4LTQuOTc1MDM0OS0xMS4xMzA0MzQ4LTExLjEzMDQzNDgtLjAwMDAwNDctNi4xNTUzOTk5IDQuOTc1MDM0OS0xMS4xMzA0MzQ4IDExLjEzMDQzNDgtMTEuMTMwNDM0OHoiLz48cGF0aCBmaWxsPSJ1cmwoI2IpIiBkPSJtMTI4Ljc1NzEwMSAyNTQuMTI2MjcxYzY0LjgzMjMwMiAwIDYwLjc4MzczOC0yOC4xMTUxOSA2MC43ODM3MzgtMjguMTE1MTlsLS4wNzIyNzUtMjkuMTI3MDQ2aC02MS44Njc4NzJ2LTguNzQ1MzQyaDg2LjQ0MTU1OXM0MS40ODYxNjYgNC43MDQ4OTYgNDEuNDg2MTY2LTYwLjcxMTQ4NWMuMDAwMDIzLTY1LjQxNjM1MTQtMzYuMjEwMDUxLTYzLjA5NjU0OTEtMzYuMjEwMDUxLTYzLjA5NjU0OTFoLTIxLjYxMDM5djMwLjM1NTcyNDNzMS4xNjQ4NzQgMzYuMjEwMDUwOC0zNS42MzE4NDYgMzYuMjEwMDUwOGgtNjEuMzYxOTQ4cy0zNC40NzU0MzctLjU1NzI5Ni0zNC40NzU0MzcgMzMuMzE5MDUydjU2LjAxMzU1MnMtNS4yMzQzMjI1IDMzLjg5NzIzMyA2Mi41MTgzNTYgMzMuODk3MjMzem0zNC4xMTQwNTktMTkuNTg2Njc0Yy02LjE1NTQwMSAwLTExLjEzMDQzNC00Ljk3NTAzMy0xMS4xMzA0MzQtMTEuMTMwNDM1IDAtNi4xNTU0MDMgNC45NzUwMzMtMTEuMTMwNDM1IDExLjEzMDQzNC0xMS4xMzA0MzUgNi4xNTU0MDMgMCAxMS4xMzA0MzUgNC45NzUwMzIgMTEuMTMwNDM1IDExLjEzMDQzNS4wMDAwMjMgNi4xNTU0MDItNC45NzUwMzIgMTEuMTMwNDM1LTExLjEzMDQzNSAxMS4xMzA0MzV6Ii8+PC9zdmc+;" vertex="1" parent="1">
          <mxGeometry x="265" y="170" width="60" height="59.77" as="geometry" />
        </mxCell>
        <mxCell id="9Mf4X-yOeQ4NxgGHDEPR-8" value="Source: Flat File" style="rounded=0;whiteSpace=wrap;html=1;" vertex="1" parent="1">
          <mxGeometry x="50" y="130" width="120" height="30" as="geometry" />
        </mxCell>
        <mxCell id="9Mf4X-yOeQ4NxgGHDEPR-9" value="Extract" style="rounded=0;whiteSpace=wrap;html=1;" vertex="1" parent="1">
          <mxGeometry x="160" y="229.77" width="85" height="20.23" as="geometry" />
        </mxCell>
        <mxCell id="9Mf4X-yOeQ4NxgGHDEPR-10" value="Extract" style="rounded=0;whiteSpace=wrap;html=1;" vertex="1" parent="1">
          <mxGeometry x="340" y="230" width="85" height="20.23" as="geometry" />
        </mxCell>
        <mxCell id="9Mf4X-yOeQ4NxgGHDEPR-11" value="Destination: DataBase" style="rounded=0;whiteSpace=wrap;html=1;" vertex="1" parent="1">
          <mxGeometry x="440" y="130" width="120" height="30" as="geometry" />
        </mxCell>
        <mxCell id="9Mf4X-yOeQ4NxgGHDEPR-13" value="" style="shape=image;verticalLabelPosition=bottom;labelBackgroundColor=default;verticalAlign=top;aspect=fixed;imageAspect=0;image=data:image/svg+xml,PHN2ZyB4bWxucz0iaHR0cDovL3d3dy53My5vcmcvMjAwMC9zdmciIHZpZXdCb3g9IjAgMCAxMjggMTI4Ij48ZyBmaWxsPSIjMTgxNjE2Ij48cGF0aCBkPSJNNjQgMS41MTJjLTIzLjQ5MyAwLTQyLjU0NSAxOS4wNDctNDIuNTQ1IDQyLjU0NSAwIDE4Ljc5NyAxMi4xOSAzNC43NDUgMjkuMDk1IDQwLjM3IDIuMTI2LjM5NCAyLjkwNy0uOTIzIDIuOTA3LTIuMDQ3IDAtMS4wMTQtLjA0LTQuMzY2LS4wNTgtNy45Mi0xMS44MzcgMi41NzMtMTQuMzM0LTUuMDItMTQuMzM0LTUuMDItMS45MzUtNC45MTgtNC43MjQtNi4yMjYtNC43MjQtNi4yMjYtMy44Ni0yLjY0LjI5LTIuNTg2LjI5LTIuNTg2IDQuMjczLjMgNi41MjMgNC4zODUgNi41MjMgNC4zODUgMy43OTQgNi41MDQgOS45NTMgNC42MjMgMTIuMzggMy41MzYuMzgzLTIuNzUgMS40ODUtNC42MjggMi43MDItNS42OS05LjQ1LTEuMDc1LTE5LjM4NC00LjcyNC0xOS4zODQtMjEuMDI2IDAtNC42NDUgMS42NjItOC40NCA0LjM4NC0xMS40Mi0uNDQyLTEuMDcyLTEuODk4LTUuNC40MTItMTEuMjYgMCAwIDMuNTcyLTEuMTQyIDExLjcgNC4zNjMgMy4zOTUtLjk0MyA3LjAzNS0xLjQxNiAxMC42NS0xLjQzMiAzLjYxNi4wMTcgNy4yNTguNDkgMTAuNjU4IDEuNDMyIDguMTItNS41MDQgMTEuNjg4LTQuMzYyIDExLjY4OC00LjM2MiAyLjMxNiA1Ljg2Ljg2IDEwLjE4Ny40MTggMTEuMjYgMi43MjggMi45NzggNC4zNzggNi43NzQgNC4zNzggMTEuNDIgMCAxNi4zNC05Ljk1MyAxOS45MzgtMTkuNDI3IDIwLjk5IDEuNTI2IDEuMzIgMi44ODYgMy45MSAyLjg4NiA3Ljg4IDAgNS42OTItLjA0OCAxMC4yNzMtLjA0OCAxMS42NzQgMCAxLjEzLjc2NiAyLjQ1OCAyLjkyMiAyLjA0IDE2Ljg5Ni01LjYzMiAyOS4wNy0yMS41NzQgMjkuMDctNDAuMzY1QzEwNi41NDUgMjAuNTYgODcuNDk3IDEuNTEyIDY0IDEuNTEyeiIgY2xpcC1ydWxlPSJldmVub2RkIiBmaWxsLXJ1bGU9ImV2ZW5vZGQiLz48cGF0aCBkPSJNMzcuNTcgNjIuNTk2Yy0uMDk1LjIxMi0uNDI4LjI3NS0uNzMuMTMtLjMxLS4xNC0uNDgyLS40MjctLjM4Mi0uNjQuMDktLjIxNi40MjQtLjI3Ny43MzMtLjEzMi4zMS4xNC40ODYuNDMuMzguNjQyek0zOS4yOTMgNjQuNTJjLS4yMDMuMTg3LS42LjEtLjg3LS4xOTgtLjI3OC0uMjk3LS4zMy0uNjk0LS4xMjQtLjg4NC4yMDgtLjE4OC41OTMtLjEuODcuMTk3LjI4LjMuMzM1LjY5My4xMjMuODg0em0xLjY3NyAyLjQ0OGMtLjI2LjE4Mi0uNjg3LjAxMi0uOTUtLjM2Ny0uMjYyLS4zNzctLjI2Mi0uODMuMDA1LTEuMDEzLjI2NC0uMTgyLjY4NC0uMDE4Ljk1LjM1Ny4yNjIuMzg1LjI2Mi44NC0uMDA1IDEuMDI0em0yLjI5OCAyLjM2OGMtLjIzMy4yNTctLjczLjE4OC0xLjA5My0uMTYzLS4zNzItLjM0My0uNDc1LS44My0uMjQyLTEuMDg3LjIzNy0uMjU3LjczNi0uMTg1IDEuMTAyLjE2My4zNy4zNDIuNDgyLjgzLjIzMyAxLjA4NnptMy4xNzIgMS4zNzRjLS4xMDQuMzM0LS41ODIuNDg1LTEuMDY0LjM0NC0uNDgyLS4xNDYtLjc5Ni0uNTM2LS43LS44NzIuMS0uMzM2LjU4Mi0uNDkzIDEuMDY3LS4zNDIuNDguMTQ0Ljc5NS41My42OTYuODd6bTMuNDguMjU1Yy4wMTMuMzUtLjM5Ni42NDItLjkwMi42NDgtLjUwOC4wMTItLjkyLS4yNzItLjkyNi0uNjE4IDAtLjM1NC40LS42NDIuOTA4LS42NS41MDYtLjAxLjkyLjI3Mi45Mi42MnptMy4yNC0uNTUxYy4wNi4zNDItLjI5LjY5NC0uNzkzLjc4Ny0uNDk0LjA5Mi0uOTUtLjEyLTEuMDE0LS40Ni0uMDYtLjM1LjI5Ny0uNy43OS0uNzkyLjUwMy0uMDg4Ljk1My4xMTggMS4wMTcuNDY2em0wIDAiLz48L2c+PHBhdGggZmlsbD0iIzEwMEUwRiIgZD0iTTI0Ljg1NSAxMDguMzAyaC0xMC43YS41LjUgMCAwMC0uNS41djUuMjMyYS41LjUgMCAwMC41LjVoNC4xNzN2Ni41cy0uOTM3LjMyLTMuNTMuMzJjLTMuMDU2IDAtNy4zMjctMS4xMTYtNy4zMjctMTAuNTA4IDAtOS4zOTMgNC40NDgtMTAuNjMgOC42MjQtMTAuNjMgMy42MTQgMCA1LjE3LjYzNiA2LjE2Mi45NDMuMzEuMDk0LjYtLjIxNi42LS40OTJsMS4xOTMtNS4wNTVhLjQ2OC40NjggMCAwMC0uMTkyLS4zOWMtLjQwMy0uMjg4LTIuODU3LTEuNjYtOS4wNTgtMS42Ni03LjE0NCAwLTE0LjQ3MiAzLjAzOC0xNC40NzIgMTcuNjUgMCAxNC42MSA4LjM5IDE2Ljc4NyAxNS40NiAxNi43ODcgNS44NTQgMCA5LjQwNS0yLjUwMiA5LjQwNS0yLjUwMi4xNDYtLjA4LjE2Mi0uMjg1LjE2Mi0uMzh2LTE2LjMxNmEuNS41IDAgMDAtLjUtLjV6TTc5LjUwNiA5NC44MUg3My40OGEuNS41IDAgMDAtLjQ5OC41MDNsLjAwMiAxMS42NDRoLTkuMzkyVjk1LjMxM2EuNS41IDAgMDAtLjQ5Ny0uNTAzSDU3LjA3YS41LjUgMCAwMC0uNDk4LjUwM3YzMS41M2MwIC4yNzcuMjI0LjUwMy40OTguNTAzaDYuMDI1YS41LjUgMCAwMC40OTctLjUwNHYtMTMuNDg2aDkuMzkybC0uMDE2IDEzLjQ4NmMwIC4yNzguMjI0LjUwNC41LjUwNGg2LjAzOGEuNS41IDAgMDAuNDk3LS41MDR2LTMxLjUzYS40OTcuNDk3IDAgMDAtLjQ5Ny0uNTAyem0tNDcuMTY2LjcxN2MtMi4xNDQgMC0zLjg4NCAxLjc1My0zLjg4NCAzLjkyMyAwIDIuMTY3IDEuNzQgMy45MjUgMy44ODQgMy45MjUgMi4xNDYgMCAzLjg4NS0xLjc1OCAzLjg4NS0zLjkyNSAwLTIuMTctMS43NC0zLjkyMy0zLjg4NS0zLjkyM3ptMi45NTYgOS42MDhIMjkuMjljLS4yNzYgMC0uNTIyLjI4NC0uNTIyLjU2djIwLjg1MmMwIC42MTMuMzgyLjc5NS44NzYuNzk1aDUuNDFjLjU5NSAwIC43NC0uMjkyLjc0LS44MDV2LTIwLjg5OWEuNS41IDAgMDAtLjQ5OC0uNTAyem02Ny42MDYuMDQ3aC01Ljk4YS41LjUgMCAwMC0uNDk2LjUwNHYxNS40NnMtMS41MiAxLjExLTMuNjc1IDEuMTEtMi43MjctLjk3Ny0yLjcyNy0zLjA4OHYtMTMuNDgyYS41LjUgMCAwMC0uNDk3LS41MDRoLTYuMDY4YS41MDIuNTAyIDAgMDAtLjQ5OC41MDR2MTQuNTAyYzAgNi4yNyAzLjQ5NSA3LjgwNCA4LjMwMiA3LjgwNCAzLjk0NCAwIDcuMTI0LTIuMTggNy4xMjQtMi4xOHMuMTUgMS4xNS4yMiAxLjI4NWMuMDcuMTM2LjI0Ny4yNzMuNDQuMjczbDMuODYtLjAxN2EuNTAyLjUwMiAwIDAwLjUtLjUwNGwtLjAwMy0yMS4xNjZhLjUwNC41MDQgMCAwMC0uNS0uNTAyem0xNi4zNDItLjcwOGMtMy4zOTYgMC01LjcwNiAxLjUxNS01LjcwNiAxLjUxNVY5NS4zMTJhLjUuNSAwIDAwLS40OTctLjUwM0gxMDdhLjUuNSAwIDAwLS41LjUwM3YzMS41M2EuNS41IDAgMDAuNS41MDNoNC4xOTJjLjE5IDAgLjMzMi0uMDk3LjQzNy0uMjY4LjEwMy0uMTcuMjU0LTEuNDU0LjI1NC0xLjQ1NHMyLjQ3IDIuMzQgNy4xNDggMi4zNGM1LjQ5IDAgOC42NC0yLjc4NCA4LjY0LTEyLjUwMnMtNS4wMy0xMC45ODgtOC40MjgtMTAuOTg4em0tMi4zNiAxNy43NjRjLTIuMDczLS4wNjMtMy40OC0xLjAwNC0zLjQ4LTEuMDA0di05Ljk4NXMxLjM4OC0uODUgMy4wOS0xLjAwNGMyLjE1My0uMTkzIDQuMjI4LjQ1OCA0LjIyOCA1LjU5NCAwIDUuNDE3LS45MzUgNi40ODYtMy44MzcgNi4zOTh6bS02My42ODktLjExOGMtLjI2MyAwLS45MzcuMTA3LTEuNjMuMTA3LTIuMjIgMC0yLjk3My0xLjAzMi0yLjk3My0yLjM2OHYtOC44NjZoNC41MmEuNS41IDAgMDAuNS0uNTA0di00Ljg1NmEuNS41IDAgMDAtLjUtLjUwMmgtNC41MmwtLjAwNy01Ljk3YzAtLjIyNy0uMTE2LS4zNC0uMzc4LS4zNGgtNi4xNmMtLjIzOCAwLS4zNjcuMTA2LS4zNjcuMzM1djYuMTdzLTMuMDg3Ljc0NS0zLjI5NS44MDVhLjUuNSAwIDAwLS4zNi40OHYzLjg3N2EuNS41IDAgMDAuNDk3LjUwM2gzLjE1OHY5LjMyOGMwIDYuOTMgNC44NiA3LjYxIDguMTQgNy42MSAxLjQ5NyAwIDMuMjktLjQ4IDMuNTg2LS41OS4xOC0uMDY3LjI4My0uMjUyLjI4My0uNDUzbC4wMDQtNC4yNjVhLjUxLjUxIDAgMDAtLjUtLjUwMnoiLz48L3N2Zz4=;" vertex="1" parent="1">
          <mxGeometry x="670" y="169.76999999999998" width="60" height="60" as="geometry" />
        </mxCell>
        <mxCell id="9Mf4X-yOeQ4NxgGHDEPR-20" value="" style="shape=image;verticalLabelPosition=bottom;labelBackgroundColor=default;verticalAlign=top;aspect=fixed;imageAspect=0;image=data:image/svg+xml,PHN2ZyB4bWxucz0iaHR0cDovL3d3dy53My5vcmcvMjAwMC9zdmciIHZpZXdCb3g9IjAgMCAxMjggMTI4Ij48cGF0aCBkPSJNMTI0LjczNyA1OC4zNzhMNjkuNjIxIDMuMjY0Yy0zLjE3Mi0zLjE3NC04LjMyLTMuMTc0LTExLjQ5NyAwTDQ2LjY4IDE0LjcxbDE0LjUxOCAxNC41MThjMy4zNzUtMS4xMzkgNy4yNDMtLjM3NSA5LjkzMiAyLjMxNCAyLjcwMyAyLjcwNiAzLjQ2MSA2LjYwNyAyLjI5NCA5Ljk5M2wxMy45OTIgMTMuOTkzYzMuMzg1LTEuMTY3IDcuMjkyLS40MTMgOS45OTQgMi4yOTUgMy43OCAzLjc3NyAzLjc4IDkuOSAwIDEzLjY3OWE5LjY3MyA5LjY3MyAwIDAxLTEzLjY4MyAwIDkuNjc3IDkuNjc3IDAgMDEtMi4xMDUtMTAuNTIxTDY4LjU3NCA0Ny45MzNsLS4wMDIgMzQuMzQxYTkuNzA4IDkuNzA4IDAgMDEyLjU1OSAxLjgyOGMzLjc3OCAzLjc3NyAzLjc3OCA5Ljg5OCAwIDEzLjY4My0zLjc3OSAzLjc3Ny05LjkwNCAzLjc3Ny0xMy42NzkgMC0zLjc3OC0zLjc4NC0zLjc3OC05LjkwNSAwLTEzLjY4M2E5LjY1IDkuNjUgMCAwMTMuMTY3LTIuMTFWNDcuMzMzYTkuNTgxIDkuNTgxIDAgMDEtMy4xNjctMi4xMTFjLTIuODYyLTIuODYtMy41NTEtNy4wNi0yLjA4My0xMC41NzZMNDEuMDU2IDIwLjMzMyAzLjI2NCA1OC4xMjNhOC4xMzMgOC4xMzMgMCAwMDAgMTEuNWw1NS4xMTcgNTUuMTE0YzMuMTc0IDMuMTc0IDguMzIgMy4xNzQgMTEuNDk5IDBsNTQuODU4LTU0Ljg1OGE4LjEzNSA4LjEzNSAwIDAwLS4wMDEtMTEuNTAxeiIgZmlsbD0iI0YzNEYyOSIvPjwvc3ZnPg==;" vertex="1" parent="1">
          <mxGeometry x="597.5" y="160" width="30" height="30" as="geometry" />
        </mxCell>
        <mxCell id="9Mf4X-yOeQ4NxgGHDEPR-24" value="Push" style="rounded=0;whiteSpace=wrap;html=1;" vertex="1" parent="1">
          <mxGeometry x="570" y="226.86" width="85" height="20.23" as="geometry" />
        </mxCell>
        <mxCell id="9Mf4X-yOeQ4NxgGHDEPR-25" value="Project to Repo" style="rounded=0;whiteSpace=wrap;html=1;" vertex="1" parent="1">
          <mxGeometry x="670" y="130" width="85" height="20.23" as="geometry" />
        </mxCell>
      </root>
    </mxGraphModel>
  </diagram>
</mxfile>
